# xmcd CD database file
#
# Track frame offsets:
#	150
#	24060
#	48278
#	72643
#	92112
#	115517
#	157162
#	173211
#
# Disc length: 2838 seconds
#
# Revision: 0
# Processed by: cddbd v1.5.2PL0 Copyright (c) Steve Scherf et al.
# Submitted via: CDex 1.70beta2
#
DISCID=600b1408
DTITLE=Horace Silver - Live
DYEAR=1900
DGENRE=Jazz
TTITLE0=hankerin ´
TTITLE1=room 608
TTITLE2=hippy
TTITLE3=the preacher
TTITLE4=to whom it may concern
TTITLE5=confirmation
TTITLE6=if i had you
TTITLE7=now´s the time
EXTD=
EXTT0=
EXTT1=
EXTT2=
EXTT3=
EXTT4=
EXTT5=
EXTT6=
EXTT7=
PLAYORDER=
